<svg width="60" height="60" viewBox="0 0 60 60" fill="none" xmlns="http://www.w3.org/2000/svg">
    <circle cx="30" cy="30" r="30" fill="#D5E8FC"/>
    <path fill-rule="evenodd" clip-rule="evenodd"
          d="M30 42.4999C30.4144 42.4999 30.8119 42.3352 31.1049 42.0422C31.3979 41.7492 31.5625 41.3518 31.5625 40.9374V22.8342L38.2688 29.5436C38.414 29.6889 38.5865 29.8041 38.7763 29.8827C38.9661 29.9614 39.1696 30.0018 39.375 30.0018C39.5805 30.0018 39.7839 29.9614 39.9737 29.8827C40.1635 29.8041 40.336 29.6889 40.4813 29.5436C40.6265 29.3983 40.7418 29.2259 40.8204 29.0361C40.899 28.8463 40.9395 28.6428 40.9395 28.4374C40.9395 28.2319 40.899 28.0285 40.8204 27.8387C40.7418 27.6489 40.6265 27.4764 40.4813 27.3311L31.1063 17.9561C30.9611 17.8106 30.7887 17.6952 30.5989 17.6164C30.409 17.5376 30.2055 17.4971 30 17.4971C29.7945 17.4971 29.591 17.5376 29.4012 17.6164C29.2113 17.6952 29.0389 17.8106 28.8938 17.9561L19.5188 27.3311C19.2254 27.6245 19.0605 28.0224 19.0605 28.4374C19.0605 28.8523 19.2254 29.2502 19.5188 29.5436C19.8122 29.837 20.2101 30.0018 20.625 30.0018C21.0399 30.0018 21.4379 29.837 21.7313 29.5436L28.4375 22.8342V40.9374C28.4375 41.3518 28.6021 41.7492 28.8952 42.0422C29.1882 42.3352 29.5856 42.4999 30 42.4999Z"
          fill="white"/>
</svg>
