<svg width="34" height="34" viewBox="0 0 34 34" fill="none" xmlns="http://www.w3.org/2000/svg">
    <path fill-rule="evenodd" clip-rule="evenodd"
          d="M21.777 7.91797H18.1189C18.1105 7.91797 18.1029 7.91797 18.0953 7.91965C14.4018 7.93144 13.9202 10.5234 13.9185 12.7896C13.913 12.8107 13.9101 12.8325 13.9101 12.8544V14.4451H11.3837C11.3102 14.4454 11.2397 14.4747 11.1878 14.5268C11.1359 14.5789 11.1067 14.6495 11.1067 14.723V18.6456C11.1067 18.7997 11.2305 18.9234 11.3837 18.9234H13.9101V27.5298C13.9097 27.5665 13.9167 27.6029 13.9305 27.6369C13.9443 27.6709 13.9647 27.7018 13.9906 27.7279C14.0164 27.754 14.0471 27.7747 14.081 27.7888C14.1149 27.8029 14.1512 27.8102 14.188 27.8102H17.8755C17.9121 27.8101 17.9483 27.8028 17.982 27.7886C18.0157 27.7745 18.0463 27.7539 18.0721 27.7279C18.0978 27.7019 18.1182 27.6711 18.132 27.6373C18.1458 27.6034 18.1528 27.5672 18.1526 27.5306V18.9243H21.7762C21.8499 18.9243 21.9205 18.895 21.9727 18.8429C22.0248 18.7908 22.0541 18.7201 22.0541 18.6464V14.723C22.0541 14.6493 22.0248 14.5786 21.9727 14.5265C21.9205 14.4744 21.8499 14.4451 21.7762 14.4451H17.8755V12.3357H21.7762C21.8499 12.3357 21.9205 12.3064 21.9727 12.2543C22.0248 12.2021 22.0541 12.1315 22.0541 12.0578V8.19671C22.0541 8.12315 22.0249 8.05259 21.973 8.0005C21.921 7.94841 21.8506 7.91903 21.777 7.91881V7.91797Z"
          fill="white"/>
    <path fill-rule="evenodd" clip-rule="evenodd"
          d="M17 1C25.8303 1 33 8.16968 33 17C33 25.8303 25.8303 33 17 33C8.16968 33 1 25.8303 1 17C1 8.16968 8.16968 1 17 1Z"
          stroke="white" stroke-width="2"/>
</svg>
