<svg width="34" height="34" viewBox="0 0 34 34" fill="none" xmlns="http://www.w3.org/2000/svg">
    <path fill-rule="evenodd" clip-rule="evenodd"
          d="M17 1C25.8303 1 33 8.16884 33 17C33 25.8303 25.8303 33 17 33C8.16968 33 1 25.8303 1 17C1 8.16884 8.16968 1 17 1V1Z"
          stroke="white" stroke-width="2"/>
    <path d="M20.1578 8.78369H13.842C10.9359 8.78369 8.57886 11.2039 8.57886 14.1892V20.6759C8.57886 23.6603 10.9359 26.0814 13.842 26.0814H20.1578C23.0639 26.0814 25.421 23.6603 25.421 20.6751V14.19C25.421 11.2039 23.0639 8.78369 20.1578 8.78369ZM23.842 20.6759C23.842 22.7618 22.1898 24.4595 20.1578 24.4595H13.842C11.8109 24.4595 10.1578 22.7618 10.1578 20.6759V14.1892C10.1578 12.1024 11.8109 10.4056 13.842 10.4056H20.1578C22.1898 10.4056 23.842 12.1024 23.842 14.1892V20.6759Z"
          fill="white"/>
    <path d="M17.0001 13.1079C14.675 13.1079 12.7896 15.0448 12.7896 17.4321C12.7896 19.8203 14.675 21.7563 17.0001 21.7563C19.3251 21.7563 21.2106 19.8203 21.2106 17.4321C21.2106 15.0439 19.3251 13.1079 17.0001 13.1079ZM17.0001 20.1353C15.5491 20.1353 14.3685 18.9227 14.3685 17.4321C14.3685 15.9416 15.5491 14.729 17.0001 14.729C18.451 14.729 19.6317 15.9416 19.6317 17.4321C19.6317 18.9227 18.451 20.1353 17.0001 20.1353Z"
          fill="white"/>
    <path d="M21.6307 13.5162C22.0958 13.5162 22.4728 13.1392 22.4728 12.6741C22.4728 12.2091 22.0958 11.832 21.6307 11.832C21.1656 11.832 20.7886 12.2091 20.7886 12.6741C20.7886 13.1392 21.1656 13.5162 21.6307 13.5162Z"
          fill="white"/>
</svg>
